# MagicaVoxel @ Ephtracy

# group
o 

# material
mtllib paved_path_obj-1.mtl
usemtl palette

# normals
vn -1 0 0
vn 1 0 0
vn 0 0 1
vn 0 0 -1
vn 0 -1 0
vn 0 1 0

# texcoords
vt 0.908203 0.5
vt 0.912109 0.5
vt 0.916016 0.5
vt 0.919922 0.5
vt 0.951172 0.5

# verts
v 2 0 0.9
v 2 0 0
v 2 0.1 0.9
v 2 0.1 0.8
v 2 0.1 0.7
v 2 0.1 0.6
v 2 0.1 0.5
v 2 0.1 0.4
v 2 0.1 0.3
v 2 0.1 0.2
v 2 0.1 0.1
v 2 0.1 0
v 2 0.2 0.9
v 2 0.2 0.8
v 2 0.2 0.7
v 2 0.2 0.6
v 2 0.2 0.5
v 2 0.2 0.4
v 2 0.2 0.3
v 2 0.2 0.2
v 2 0.2 0.1
v 2.2 0.1 0.6
v 2.2 0.1 0.5
v 2.2 0.1 0.4
v 2.2 0.2 0.6
v 2.2 0.2 0.5
v 2.2 0.2 0.4
v 2.4 0.1 0.9
v 2.4 0.1 0.8
v 2.4 0.1 0.7
v 2.4 0.1 0.3
v 2.4 0.1 0.2
v 2.4 0.1 0.1
v 2.4 0.2 0.9
v 2.4 0.2 0.8
v 2.4 0.2 0.7
v 2.4 0.2 0.3
v 2.4 0.2 0.2
v 2.4 0.2 0.1
v 2.6 0.1 0.6
v 2.6 0.1 0.4
v 2.6 0.2 0.6
v 2.6 0.2 0.4
v 2.8 0.1 0.9
v 2.8 0.1 0.8
v 2.8 0.1 0.7
v 2.8 0.1 0.3
v 2.8 0.1 0.2
v 2.8 0.1 0.1
v 2.8 0.2 0.9
v 2.8 0.2 0.8
v 2.8 0.2 0.7
v 2.8 0.2 0.3
v 2.8 0.2 0.2
v 2.8 0.2 0.1
v 3 0.1 0.6
v 3 0.1 0.5
v 3 0.1 0.4
v 3 0.2 0.6
v 3 0.2 0.5
v 3 0.2 0.4
v 2.1 0.1 0.6
v 2.1 0.1 0.5
v 2.1 0.1 0.4
v 2.1 0.2 0.6
v 2.1 0.2 0.5
v 2.1 0.2 0.4
v 2.3 0.1 0.9
v 2.3 0.1 0.8
v 2.3 0.1 0.7
v 2.3 0.1 0.3
v 2.3 0.1 0.2
v 2.3 0.1 0.1
v 2.3 0.2 0.9
v 2.3 0.2 0.8
v 2.3 0.2 0.7
v 2.3 0.2 0.3
v 2.3 0.2 0.2
v 2.3 0.2 0.1
v 2.5 0.1 0.6
v 2.5 0.1 0.5
v 2.5 0.1 0.4
v 2.5 0.2 0.6
v 2.5 0.2 0.5
v 2.5 0.2 0.4
v 2.7 0.1 0.9
v 2.7 0.1 0.8
v 2.7 0.1 0.7
v 2.7 0.1 0.3
v 2.7 0.1 0.2
v 2.7 0.1 0.1
v 2.7 0.2 0.9
v 2.7 0.2 0.8
v 2.7 0.2 0.7
v 2.7 0.2 0.3
v 2.7 0.2 0.2
v 2.7 0.2 0.1
v 2.9 0.1 0.6
v 2.9 0.1 0.5
v 2.9 0.1 0.4
v 2.9 0.2 0.6
v 2.9 0.2 0.5
v 2.9 0.2 0.4
v 3.1 0.1 0.9
v 3.1 0.1 0.8
v 3.1 0.1 0.7
v 3.1 0.1 0.3
v 3.1 0.1 0.2
v 3.1 0.1 0.1
v 3.1 0.2 0.9
v 3.1 0.2 0.8
v 3.1 0.2 0.7
v 3.1 0.2 0.3
v 3.1 0.2 0.2
v 3.1 0.2 0.1
v 3.2 0 0.9
v 3.2 0 0
v 3.2 0.1 0.9
v 3.2 0.1 0.6
v 3.2 0.1 0.5
v 3.2 0.1 0.4
v 3.2 0.1 0
v 3.2 0.2 0.6
v 3.2 0.2 0.5
v 3.2 0.2 0.4
v 2 0 0.9
v 2 0.1 0.9
v 2 0.2 0.9
v 2.1 0.1 0.9
v 2.1 0.2 0.9
v 2.2 0.1 0.9
v 2.2 0.2 0.9
v 2.3 0.1 0.9
v 2.3 0.2 0.9
v 2.4 0.1 0.9
v 2.4 0.2 0.9
v 2.5 0.1 0.9
v 2.5 0.2 0.9
v 2.6 0.1 0.9
v 2.6 0.2 0.9
v 2.7 0.1 0.9
v 2.7 0.2 0.9
v 2.8 0.1 0.9
v 2.8 0.2 0.9
v 2.9 0.1 0.9
v 2.9 0.2 0.9
v 3 0.1 0.9
v 3 0.2 0.9
v 3.1 0.1 0.9
v 3.1 0.2 0.9
v 3.2 0 0.9
v 3.2 0.1 0.9
v 2 0.1 0.6
v 2 0.2 0.6
v 2.1 0.1 0.6
v 2.1 0.2 0.6
v 2.2 0.1 0.6
v 2.2 0.2 0.6
v 2.3 0.1 0.6
v 2.3 0.2 0.6
v 2.4 0.1 0.6
v 2.4 0.2 0.6
v 2.5 0.1 0.6
v 2.5 0.2 0.6
v 2.6 0.1 0.6
v 2.6 0.2 0.6
v 2.7 0.1 0.6
v 2.7 0.2 0.6
v 2.8 0.1 0.6
v 2.8 0.2 0.6
v 2.9 0.1 0.6
v 2.9 0.2 0.6
v 3 0.1 0.6
v 3 0.2 0.6
v 3.1 0.1 0.6
v 3.1 0.2 0.6
v 3.2 0.1 0.6
v 3.2 0.2 0.6
v 2 0.1 0.3
v 2 0.2 0.3
v 2.1 0.1 0.3
v 2.1 0.2 0.3
v 2.3 0.1 0.3
v 2.3 0.2 0.3
v 2.4 0.1 0.3
v 2.4 0.2 0.3
v 2.5 0.1 0.3
v 2.5 0.2 0.3
v 2.7 0.1 0.3
v 2.7 0.2 0.3
v 2.8 0.1 0.3
v 2.8 0.2 0.3
v 2.9 0.1 0.3
v 2.9 0.2 0.3
v 3 0.1 0.3
v 3 0.2 0.3
v 3.1 0.1 0.3
v 3.1 0.2 0.3
v 2 0.1 0.7
v 2 0.2 0.7
v 2.1 0.1 0.7
v 2.1 0.2 0.7
v 2.3 0.1 0.7
v 2.3 0.2 0.7
v 2.4 0.1 0.7
v 2.4 0.2 0.7
v 2.5 0.1 0.7
v 2.5 0.2 0.7
v 2.6 0.1 0.7
v 2.6 0.2 0.7
v 2.7 0.1 0.7
v 2.7 0.2 0.7
v 2.8 0.1 0.7
v 2.8 0.2 0.7
v 2.9 0.1 0.7
v 2.9 0.2 0.7
v 3 0.1 0.7
v 3 0.2 0.7
v 3.1 0.1 0.7
v 3.1 0.2 0.7
v 2 0.1 0.4
v 2 0.2 0.4
v 2.1 0.1 0.4
v 2.1 0.2 0.4
v 2.2 0.1 0.4
v 2.2 0.2 0.4
v 2.3 0.1 0.4
v 2.3 0.2 0.4
v 2.4 0.1 0.4
v 2.4 0.2 0.4
v 2.5 0.1 0.4
v 2.5 0.2 0.4
v 2.6 0.1 0.4
v 2.6 0.2 0.4
v 2.7 0.1 0.4
v 2.7 0.2 0.4
v 2.8 0.1 0.4
v 2.8 0.2 0.4
v 2.9 0.1 0.4
v 2.9 0.2 0.4
v 3 0.1 0.4
v 3 0.2 0.4
v 3.1 0.1 0.4
v 3.1 0.2 0.4
v 3.2 0.1 0.4
v 3.2 0.2 0.4
v 2 0.1 0.1
v 2 0.2 0.1
v 2.1 0.1 0.1
v 2.1 0.2 0.1
v 2.2 0.1 0.1
v 2.2 0.2 0.1
v 2.3 0.1 0.1
v 2.3 0.2 0.1
v 2.4 0.1 0.1
v 2.4 0.2 0.1
v 2.6 0.1 0.1
v 2.6 0.2 0.1
v 2.7 0.1 0.1
v 2.7 0.2 0.1
v 2.8 0.1 0.1
v 2.8 0.2 0.1
v 2.9 0.1 0.1
v 2.9 0.2 0.1
v 3.1 0.1 0.1
v 3.1 0.2 0.1
v 2 0 0
v 2 0.1 0
v 3.2 0 0
v 3.2 0.1 0
v 2 0 0.9
v 3.2 0 0.9
v 2 0 0
v 3.2 0 0
v 2.3 0.1 0.9
v 2.4 0.1 0.9
v 2.7 0.1 0.9
v 2.8 0.1 0.9
v 3.1 0.1 0.9
v 3.2 0.1 0.9
v 2.3 0.1 0.8
v 2.4 0.1 0.8
v 2.7 0.1 0.8
v 2.8 0.1 0.8
v 3.1 0.1 0.8
v 2 0.1 0.7
v 2.1 0.1 0.7
v 2.3 0.1 0.7
v 2.4 0.1 0.7
v 2.5 0.1 0.7
v 2.6 0.1 0.7
v 2.7 0.1 0.7
v 2.8 0.1 0.7
v 2.9 0.1 0.7
v 3 0.1 0.7
v 3.1 0.1 0.7
v 2 0.1 0.6
v 2.1 0.1 0.6
v 2.2 0.1 0.6
v 2.3 0.1 0.6
v 2.4 0.1 0.6
v 2.5 0.1 0.6
v 2.6 0.1 0.6
v 2.7 0.1 0.6
v 2.8 0.1 0.6
v 2.9 0.1 0.6
v 3 0.1 0.6
v 3.1 0.1 0.6
v 3.2 0.1 0.6
v 2.1 0.1 0.5
v 2.2 0.1 0.5
v 2.5 0.1 0.5
v 2.9 0.1 0.5
v 3 0.1 0.5
v 2 0.1 0.4
v 2.1 0.1 0.4
v 2.2 0.1 0.4
v 2.3 0.1 0.4
v 2.4 0.1 0.4
v 2.5 0.1 0.4
v 2.6 0.1 0.4
v 2.7 0.1 0.4
v 2.8 0.1 0.4
v 2.9 0.1 0.4
v 3 0.1 0.4
v 3.1 0.1 0.4
v 3.2 0.1 0.4
v 2 0.1 0.3
v 2.1 0.1 0.3
v 2.3 0.1 0.3
v 2.4 0.1 0.3
v 2.5 0.1 0.3
v 2.7 0.1 0.3
v 2.8 0.1 0.3
v 2.9 0.1 0.3
v 3 0.1 0.3
v 3.1 0.1 0.3
v 2.3 0.1 0.2
v 2.4 0.1 0.2
v 2.7 0.1 0.2
v 2.8 0.1 0.2
v 3.1 0.1 0.2
v 2 0.1 0.1
v 2.1 0.1 0.1
v 2.2 0.1 0.1
v 2.3 0.1 0.1
v 2.4 0.1 0.1
v 2.6 0.1 0.1
v 2.7 0.1 0.1
v 2.8 0.1 0.1
v 2.9 0.1 0.1
v 3.1 0.1 0.1
v 2 0.1 0
v 3.2 0.1 0
v 2 0.2 0.9
v 2.1 0.2 0.9
v 2.2 0.2 0.9
v 2.3 0.2 0.9
v 2.4 0.2 0.9
v 2.5 0.2 0.9
v 2.6 0.2 0.9
v 2.7 0.2 0.9
v 2.8 0.2 0.9
v 2.9 0.2 0.9
v 3 0.2 0.9
v 3.1 0.2 0.9
v 2 0.2 0.8
v 2.1 0.2 0.8
v 2.2 0.2 0.8
v 2.3 0.2 0.8
v 2.4 0.2 0.8
v 2.5 0.2 0.8
v 2.6 0.2 0.8
v 2.7 0.2 0.8
v 2.8 0.2 0.8
v 2.9 0.2 0.8
v 3 0.2 0.8
v 3.1 0.2 0.8
v 2 0.2 0.7
v 2.1 0.2 0.7
v 2.3 0.2 0.7
v 2.4 0.2 0.7
v 2.5 0.2 0.7
v 2.6 0.2 0.7
v 2.7 0.2 0.7
v 2.8 0.2 0.7
v 2.9 0.2 0.7
v 3 0.2 0.7
v 3.1 0.2 0.7
v 2 0.2 0.6
v 2.1 0.2 0.6
v 2.2 0.2 0.6
v 2.3 0.2 0.6
v 2.4 0.2 0.6
v 2.5 0.2 0.6
v 2.6 0.2 0.6
v 2.7 0.2 0.6
v 2.8 0.2 0.6
v 2.9 0.2 0.6
v 3 0.2 0.6
v 3.1 0.2 0.6
v 3.2 0.2 0.6
v 2 0.2 0.5
v 2.1 0.2 0.5
v 2.2 0.2 0.5
v 2.3 0.2 0.5
v 2.4 0.2 0.5
v 2.5 0.2 0.5
v 2.7 0.2 0.5
v 2.8 0.2 0.5
v 2.9 0.2 0.5
v 3 0.2 0.5
v 3.1 0.2 0.5
v 3.2 0.2 0.5
v 2 0.2 0.4
v 2.1 0.2 0.4
v 2.2 0.2 0.4
v 2.3 0.2 0.4
v 2.4 0.2 0.4
v 2.5 0.2 0.4
v 2.6 0.2 0.4
v 2.7 0.2 0.4
v 2.8 0.2 0.4
v 2.9 0.2 0.4
v 3 0.2 0.4
v 3.1 0.2 0.4
v 3.2 0.2 0.4
v 2 0.2 0.3
v 2.1 0.2 0.3
v 2.3 0.2 0.3
v 2.4 0.2 0.3
v 2.5 0.2 0.3
v 2.7 0.2 0.3
v 2.8 0.2 0.3
v 2.9 0.2 0.3
v 3 0.2 0.3
v 3.1 0.2 0.3
v 2 0.2 0.2
v 2.1 0.2 0.2
v 2.2 0.2 0.2
v 2.3 0.2 0.2
v 2.4 0.2 0.2
v 2.5 0.2 0.2
v 2.6 0.2 0.2
v 2.7 0.2 0.2
v 2.8 0.2 0.2
v 2.9 0.2 0.2
v 3 0.2 0.2
v 3.1 0.2 0.2
v 2 0.2 0.1
v 2.1 0.2 0.1
v 2.2 0.2 0.1
v 2.3 0.2 0.1
v 2.4 0.2 0.1
v 2.6 0.2 0.1
v 2.7 0.2 0.1
v 2.8 0.2 0.1
v 2.9 0.2 0.1
v 3.1 0.2 0.1

# faces
f 3/5/1 2/5/1 1/5/1
f 4/5/1 2/5/1 3/5/1
f 5/5/1 2/5/1 4/5/1
f 6/5/1 2/5/1 5/5/1
f 7/5/1 2/5/1 6/5/1
f 8/5/1 2/5/1 7/5/1
f 9/5/1 2/5/1 8/5/1
f 10/5/1 2/5/1 9/5/1
f 11/5/1 2/5/1 10/5/1
f 12/5/1 2/5/1 11/5/1
f 13/3/1 4/3/1 3/3/1
f 14/4/1 5/4/1 4/4/1
f 14/3/1 4/3/1 13/3/1
f 15/4/1 5/4/1 14/4/1
f 16/3/1 7/3/1 6/3/1
f 17/1/1 8/1/1 7/1/1
f 17/3/1 7/3/1 16/3/1
f 18/1/1 8/1/1 17/1/1
f 19/1/1 10/1/1 9/1/1
f 20/4/1 11/4/1 10/4/1
f 20/1/1 10/1/1 19/1/1
f 21/4/1 11/4/1 20/4/1
f 25/1/1 23/1/1 22/1/1
f 26/3/1 24/3/1 23/3/1
f 26/1/1 23/1/1 25/1/1
f 27/3/1 24/3/1 26/3/1
f 34/2/1 29/2/1 28/2/1
f 35/1/1 30/1/1 29/1/1
f 35/2/1 29/2/1 34/2/1
f 36/1/1 30/1/1 35/1/1
f 37/3/1 32/3/1 31/3/1
f 38/4/1 33/4/1 32/4/1
f 38/3/1 32/3/1 37/3/1
f 39/4/1 33/4/1 38/4/1
f 42/3/1 41/3/1 40/3/1
f 43/3/1 41/3/1 42/3/1
f 50/1/1 45/1/1 44/1/1
f 51/2/1 46/2/1 45/2/1
f 51/1/1 45/1/1 50/1/1
f 52/2/1 46/2/1 51/2/1
f 53/1/1 48/1/1 47/1/1
f 54/4/1 49/4/1 48/4/1
f 54/1/1 48/1/1 53/1/1
f 55/4/1 49/4/1 54/4/1
f 59/2/1 57/2/1 56/2/1
f 60/1/1 58/1/1 57/1/1
f 60/2/1 57/2/1 59/2/1
f 61/1/1 58/1/1 60/1/1
f 62/3/2 63/3/2 65/3/2
f 63/1/2 64/1/2 66/1/2
f 65/3/2 63/3/2 66/3/2
f 66/1/2 64/1/2 67/1/2
f 68/1/2 69/1/2 74/1/2
f 69/3/2 70/3/2 75/3/2
f 74/1/2 69/1/2 75/1/2
f 75/3/2 70/3/2 76/3/2
f 71/3/2 72/3/2 77/3/2
f 72/2/2 73/2/2 78/2/2
f 77/3/2 72/3/2 78/3/2
f 78/2/2 73/2/2 79/2/2
f 80/4/2 81/4/2 83/4/2
f 81/2/2 82/2/2 84/2/2
f 83/4/2 81/4/2 84/4/2
f 84/2/2 82/2/2 85/2/2
f 86/1/2 87/1/2 92/1/2
f 87/3/2 88/3/2 93/3/2
f 92/1/2 87/1/2 93/1/2
f 93/3/2 88/3/2 94/3/2
f 89/2/2 90/2/2 95/2/2
f 90/3/2 91/3/2 96/3/2
f 95/2/2 90/2/2 96/2/2
f 96/3/2 91/3/2 97/3/2
f 98/2/2 99/2/2 101/2/2
f 99/3/2 100/3/2 102/3/2
f 101/2/2 99/2/2 102/2/2
f 102/3/2 100/3/2 103/3/2
f 104/1/2 105/1/2 110/1/2
f 105/4/2 106/4/2 111/4/2
f 110/1/2 105/1/2 111/1/2
f 111/4/2 106/4/2 112/4/2
f 107/2/2 108/2/2 113/2/2
f 108/1/2 109/1/2 114/1/2
f 113/2/2 108/2/2 114/2/2
f 114/1/2 109/1/2 115/1/2
f 116/5/2 117/5/2 118/5/2
f 118/5/2 117/5/2 119/5/2
f 119/5/2 117/5/2 120/5/2
f 120/5/2 117/5/2 121/5/2
f 121/5/2 117/5/2 122/5/2
f 119/3/2 120/3/2 123/3/2
f 120/2/2 121/2/2 124/2/2
f 123/3/2 120/3/2 124/3/2
f 124/2/2 121/2/2 125/2/2
f 129/5/3 127/5/3 126/5/3
f 129/3/3 128/3/3 127/3/3
f 130/3/3 128/3/3 129/3/3
f 131/5/3 129/5/3 126/5/3
f 131/2/3 130/2/3 129/2/3
f 132/2/3 130/2/3 131/2/3
f 133/5/3 131/5/3 126/5/3
f 133/1/3 132/1/3 131/1/3
f 134/1/3 132/1/3 133/1/3
f 135/5/3 133/5/3 126/5/3
f 137/5/3 135/5/3 126/5/3
f 137/2/3 136/2/3 135/2/3
f 138/2/3 136/2/3 137/2/3
f 139/5/3 137/5/3 126/5/3
f 139/4/3 138/4/3 137/4/3
f 140/4/3 138/4/3 139/4/3
f 141/5/3 139/5/3 126/5/3
f 141/1/3 140/1/3 139/1/3
f 142/1/3 140/1/3 141/1/3
f 143/5/3 141/5/3 126/5/3
f 145/5/3 143/5/3 126/5/3
f 145/1/3 144/1/3 143/1/3
f 146/1/3 144/1/3 145/1/3
f 147/5/3 145/5/3 126/5/3
f 147/4/3 146/4/3 145/4/3
f 148/4/3 146/4/3 147/4/3
f 149/5/3 147/5/3 126/5/3
f 149/1/3 148/1/3 147/1/3
f 150/1/3 148/1/3 149/1/3
f 151/5/3 149/5/3 126/5/3
f 152/5/3 149/5/3 151/5/3
f 155/3/3 154/3/3 153/3/3
f 156/3/3 154/3/3 155/3/3
f 159/1/3 158/1/3 157/1/3
f 160/1/3 158/1/3 159/1/3
f 161/3/3 160/3/3 159/3/3
f 162/3/3 160/3/3 161/3/3
f 163/4/3 162/4/3 161/4/3
f 164/4/3 162/4/3 163/4/3
f 167/3/3 166/3/3 165/3/3
f 168/3/3 166/3/3 167/3/3
f 169/4/3 168/4/3 167/4/3
f 170/4/3 168/4/3 169/4/3
f 171/2/3 170/2/3 169/2/3
f 172/2/3 170/2/3 171/2/3
f 175/2/3 174/2/3 173/2/3
f 176/2/3 174/2/3 175/2/3
f 177/3/3 176/3/3 175/3/3
f 178/3/3 176/3/3 177/3/3
f 181/1/3 180/1/3 179/1/3
f 182/1/3 180/1/3 181/1/3
f 183/3/3 182/3/3 181/3/3
f 184/3/3 182/3/3 183/3/3
f 187/3/3 186/3/3 185/3/3
f 188/3/3 186/3/3 187/3/3
f 189/2/3 188/2/3 187/2/3
f 190/2/3 188/2/3 189/2/3
f 193/1/3 192/1/3 191/1/3
f 194/1/3 192/1/3 193/1/3
f 195/3/3 194/3/3 193/3/3
f 196/3/3 194/3/3 195/3/3
f 197/2/3 196/2/3 195/2/3
f 198/2/3 196/2/3 197/2/3
f 199/4/4 200/4/4 201/4/4
f 201/4/4 200/4/4 202/4/4
f 201/3/4 202/3/4 203/3/4
f 203/3/4 202/3/4 204/3/4
f 205/1/4 206/1/4 207/1/4
f 207/1/4 206/1/4 208/1/4
f 207/4/4 208/4/4 209/4/4
f 209/4/4 208/4/4 210/4/4
f 209/3/4 210/3/4 211/3/4
f 211/3/4 210/3/4 212/3/4
f 213/2/4 214/2/4 215/2/4
f 215/2/4 214/2/4 216/2/4
f 215/3/4 216/3/4 217/3/4
f 217/3/4 216/3/4 218/3/4
f 217/4/4 218/4/4 219/4/4
f 219/4/4 218/4/4 220/4/4
f 221/1/4 222/1/4 223/1/4
f 223/1/4 222/1/4 224/1/4
f 225/3/4 226/3/4 227/3/4
f 227/3/4 226/3/4 228/3/4
f 227/1/4 228/1/4 229/1/4
f 229/1/4 228/1/4 230/1/4
f 229/2/4 230/2/4 231/2/4
f 231/2/4 230/2/4 232/2/4
f 233/3/4 234/3/4 235/3/4
f 235/3/4 234/3/4 236/3/4
f 235/1/4 236/1/4 237/1/4
f 237/1/4 236/1/4 238/1/4
f 237/3/4 238/3/4 239/3/4
f 239/3/4 238/3/4 240/3/4
f 241/1/4 242/1/4 243/1/4
f 243/1/4 242/1/4 244/1/4
f 243/2/4 244/2/4 245/2/4
f 245/2/4 244/2/4 246/2/4
f 247/4/4 248/4/4 249/4/4
f 249/4/4 248/4/4 250/4/4
f 249/1/4 250/1/4 251/1/4
f 251/1/4 250/1/4 252/1/4
f 251/2/4 252/2/4 253/2/4
f 253/2/4 252/2/4 254/2/4
f 255/4/4 256/4/4 257/4/4
f 257/4/4 256/4/4 258/4/4
f 257/3/4 258/3/4 259/3/4
f 259/3/4 258/3/4 260/3/4
f 261/4/4 262/4/4 263/4/4
f 263/4/4 262/4/4 264/4/4
f 263/1/4 264/1/4 265/1/4
f 265/1/4 264/1/4 266/1/4
f 267/5/4 268/5/4 269/5/4
f 269/5/4 268/5/4 270/5/4
f 273/5/5 272/5/5 271/5/5
f 274/5/5 272/5/5 273/5/5
f 275/5/6 276/5/6 281/5/6
f 281/5/6 276/5/6 282/5/6
f 277/5/6 278/5/6 283/5/6
f 283/5/6 278/5/6 284/5/6
f 279/5/6 280/5/6 285/5/6
f 281/5/6 282/5/6 288/5/6
f 288/5/6 282/5/6 289/5/6
f 283/5/6 284/5/6 292/5/6
f 292/5/6 284/5/6 293/5/6
f 285/5/6 280/5/6 296/5/6
f 290/5/6 291/5/6 297/5/6
f 295/5/6 296/5/6 297/5/6
f 286/5/6 287/5/6 297/5/6
f 294/5/6 295/5/6 297/5/6
f 293/5/6 294/5/6 297/5/6
f 292/5/6 293/5/6 297/5/6
f 291/5/6 292/5/6 297/5/6
f 287/5/6 288/5/6 297/5/6
f 289/5/6 290/5/6 297/5/6
f 288/5/6 289/5/6 297/5/6
f 297/5/6 296/5/6 298/5/6
f 298/5/6 296/5/6 299/5/6
f 299/5/6 296/5/6 300/5/6
f 300/5/6 296/5/6 301/5/6
f 301/5/6 296/5/6 302/5/6
f 302/5/6 296/5/6 303/5/6
f 303/5/6 296/5/6 304/5/6
f 304/5/6 296/5/6 305/5/6
f 305/5/6 296/5/6 306/5/6
f 306/5/6 296/5/6 307/5/6
f 296/5/6 280/5/6 308/5/6
f 307/5/6 296/5/6 308/5/6
f 308/5/6 280/5/6 309/5/6
f 298/5/6 299/5/6 310/5/6
f 310/5/6 299/5/6 311/5/6
f 302/5/6 303/5/6 312/5/6
f 306/5/6 307/5/6 313/5/6
f 313/5/6 307/5/6 314/5/6
f 310/5/6 311/5/6 316/5/6
f 316/5/6 311/5/6 317/5/6
f 312/5/6 303/5/6 320/5/6
f 320/5/6 303/5/6 321/5/6
f 313/5/6 314/5/6 324/5/6
f 324/5/6 314/5/6 325/5/6
f 318/5/6 319/5/6 328/5/6
f 326/5/6 327/5/6 328/5/6
f 325/5/6 326/5/6 328/5/6
f 323/5/6 324/5/6 328/5/6
f 324/5/6 325/5/6 328/5/6
f 321/5/6 322/5/6 328/5/6
f 320/5/6 321/5/6 328/5/6
f 319/5/6 320/5/6 328/5/6
f 322/5/6 323/5/6 328/5/6
f 317/5/6 318/5/6 328/5/6
f 316/5/6 317/5/6 328/5/6
f 315/5/6 316/5/6 328/5/6
f 328/5/6 327/5/6 329/5/6
f 329/5/6 327/5/6 330/5/6
f 330/5/6 327/5/6 331/5/6
f 331/5/6 327/5/6 332/5/6
f 332/5/6 327/5/6 333/5/6
f 333/5/6 327/5/6 334/5/6
f 334/5/6 327/5/6 335/5/6
f 335/5/6 327/5/6 336/5/6
f 336/5/6 327/5/6 337/5/6
f 330/5/6 331/5/6 338/5/6
f 338/5/6 331/5/6 339/5/6
f 333/5/6 334/5/6 340/5/6
f 340/5/6 334/5/6 341/5/6
f 337/5/6 327/5/6 342/5/6
f 338/5/6 339/5/6 346/5/6
f 346/5/6 339/5/6 347/5/6
f 340/5/6 341/5/6 349/5/6
f 349/5/6 341/5/6 350/5/6
f 342/5/6 327/5/6 352/5/6
f 347/5/6 348/5/6 353/5/6
f 351/5/6 352/5/6 353/5/6
f 344/5/6 345/5/6 353/5/6
f 350/5/6 351/5/6 353/5/6
f 349/5/6 350/5/6 353/5/6
f 348/5/6 349/5/6 353/5/6
f 343/5/6 344/5/6 353/5/6
f 346/5/6 347/5/6 353/5/6
f 345/5/6 346/5/6 353/5/6
f 352/5/6 327/5/6 354/5/6
f 353/5/6 352/5/6 354/5/6
f 355/3/6 356/3/6 367/3/6
f 356/2/6 357/2/6 368/2/6
f 367/3/6 356/3/6 368/3/6
f 357/1/6 358/1/6 369/1/6
f 368/2/6 357/2/6 369/2/6
f 369/1/6 358/1/6 370/1/6
f 359/2/6 360/2/6 371/2/6
f 360/4/6 361/4/6 372/4/6
f 371/2/6 360/2/6 372/2/6
f 361/1/6 362/1/6 373/1/6
f 372/4/6 361/4/6 373/4/6
f 373/1/6 362/1/6 374/1/6
f 363/1/6 364/1/6 375/1/6
f 364/4/6 365/4/6 376/4/6
f 375/1/6 364/1/6 376/1/6
f 365/1/6 366/1/6 377/1/6
f 376/4/6 365/4/6 377/4/6
f 377/1/6 366/1/6 378/1/6
f 367/4/6 368/4/6 379/4/6
f 369/3/6 370/3/6 380/3/6
f 379/4/6 368/4/6 380/4/6
f 368/3/6 369/3/6 380/3/6
f 380/3/6 370/3/6 381/3/6
f 371/1/6 372/1/6 382/1/6
f 372/4/6 373/4/6 383/4/6
f 382/1/6 372/1/6 383/1/6
f 373/3/6 374/3/6 384/3/6
f 383/4/6 373/4/6 384/4/6
f 384/3/6 374/3/6 385/3/6
f 375/2/6 376/2/6 386/2/6
f 376/3/6 377/3/6 387/3/6
f 386/2/6 376/2/6 387/2/6
f 377/4/6 378/4/6 388/4/6
f 387/3/6 377/3/6 388/3/6
f 388/4/6 378/4/6 389/4/6
f 390/3/6 391/3/6 403/3/6
f 403/3/6 391/3/6 404/3/6
f 392/1/6 393/1/6 405/1/6
f 393/3/6 394/3/6 406/3/6
f 405/1/6 393/1/6 406/1/6
f 394/4/6 395/4/6 407/4/6
f 406/3/6 394/3/6 407/3/6
f 407/4/6 395/4/6 408/4/6
f 396/3/6 397/3/6 409/3/6
f 397/4/6 398/4/6 409/4/6
f 398/2/6 399/2/6 410/2/6
f 409/4/6 398/4/6 410/4/6
f 410/2/6 399/2/6 411/2/6
f 400/2/6 401/2/6 412/2/6
f 401/3/6 402/3/6 413/3/6
f 412/2/6 401/2/6 413/2/6
f 413/3/6 402/3/6 414/3/6
f 403/1/6 404/1/6 415/1/6
f 415/1/6 404/1/6 416/1/6
f 405/3/6 406/3/6 417/3/6
f 406/1/6 407/1/6 418/1/6
f 417/3/6 406/3/6 418/3/6
f 407/2/6 408/2/6 419/2/6
f 418/1/6 407/1/6 419/1/6
f 419/2/6 408/2/6 420/2/6
f 396/3/6 409/3/6 421/3/6
f 409/1/6 410/1/6 422/1/6
f 421/3/6 409/3/6 422/3/6
f 410/3/6 411/3/6 423/3/6
f 422/1/6 410/1/6 423/1/6
f 423/3/6 411/3/6 424/3/6
f 412/1/6 413/1/6 425/1/6
f 413/2/6 414/2/6 426/2/6
f 425/1/6 413/1/6 426/1/6
f 426/2/6 414/2/6 427/2/6
f 428/1/6 429/1/6 438/1/6
f 429/3/6 430/3/6 439/3/6
f 438/1/6 429/1/6 439/1/6
f 439/3/6 430/3/6 440/3/6
f 440/3/6 430/3/6 441/3/6
f 431/3/6 432/3/6 442/3/6
f 432/2/6 433/2/6 443/2/6
f 442/3/6 432/3/6 443/3/6
f 443/2/6 433/2/6 444/2/6
f 444/2/6 433/2/6 445/2/6
f 434/1/6 435/1/6 446/1/6
f 435/3/6 436/3/6 447/3/6
f 446/1/6 435/1/6 447/1/6
f 436/2/6 437/2/6 448/2/6
f 447/3/6 436/3/6 448/3/6
f 448/2/6 437/2/6 449/2/6
f 438/4/6 439/4/6 450/4/6
f 439/1/6 440/1/6 451/1/6
f 450/4/6 439/4/6 451/4/6
f 440/2/6 441/2/6 452/2/6
f 451/1/6 440/1/6 452/1/6
f 452/2/6 441/2/6 453/2/6
f 442/4/6 443/4/6 454/4/6
f 443/4/6 444/4/6 454/4/6
f 444/3/6 445/3/6 455/3/6
f 454/4/6 444/4/6 455/4/6
f 455/3/6 445/3/6 456/3/6
f 446/4/6 447/4/6 457/4/6
f 447/1/6 448/1/6 458/1/6
f 457/4/6 447/4/6 458/4/6
f 448/1/6 449/1/6 458/1/6
f 458/1/6 449/1/6 459/1/6
